<svg xmlns="http://www.w3.org/2000/svg" viewBox="0 0 512 512" width="100%" height="100%">
  <defs>
    <filter id="shadow" x="-10%" y="-10%" width="130%" height="130%">
      <feDropShadow dx="0" dy="4" stdDeviation="4" flood-color="#000000" flood-opacity="0.45" />
    </filter>
  </defs>
  <circle cx="256" cy="256" r="246" fill="#121315" />
  <g filter="url(#shadow)">
    <!-- Letter R -->
    <path fill="#ffffff" d="M 136,190 L 195,190 C 218,190 232,201 232,220 C 232,234 223,245 208,248 L 235,322 L 208,322 L 184,255 L 160,255 L 160,322 L 136,322 Z M 160,211 L 160,235 L 191,235 C 202,235 208,230 208,223 C 208,216 202,211 191,211 Z" />
    <!-- Letter T -->
    <path fill="#ffffff" d="M 228,190 L 298,190 L 298,213 L 275,213 L 275,322 L 251,322 L 251,213 L 228,213 Z" />
    <!-- Letter I -->
    <path fill="#ffffff" d="M 314,190 L 372,190 L 372,213 L 355,213 L 355,299 L 372,299 L 372,322 L 314,322 L 314,299 L 331,299 L 331,213 L 314,213 Z" />
  </g>
</svg>
